#!OML:ASF E:\acrobat2\Project_11_07_03\Capture day 1\Session 1\Acrobat.ASF
:FULLY-SPECIFIED
:DEGREES
497
root 11.337 17.9213 26.01 -173.827 -57.7585 -178.823
lowerback -6.09963 2.63403 -1.12157
upperback -1.58186 3.55917 -2.12845
thorax 1.85206 1.74577 -1.29005
lowerneck 6.01595 6.46299 4.52702
upperneck -5.09196 8.77304 -4.13255
head -2.26679 4.41366 -2.42106
rclavicle -8.5378e-014 -3.18055e-015
rhumerus -47.6149 -6.58264 -65.1167
rradius 52.0309
rwrist -5.43126
rhand -4.91355 -38.395
rfingers 7.12502
rthumb 20.8765 -67.2917
lclavicle -8.5378e-014 -3.18055e-015
lhumerus 331.999 -11.9082 -304.542
lradius 19.1968
lwrist 5.17845
lhand -19.3414 -12.2083
lfingers 7.12502
lthumb 6.9756 17.6568
rfemur -0.800874 19.9148 4.3735
rtibia -4.23571
rfoot -39.5162 -36.763
rtoes 27.693
lfemur 8.88258 -8.55235 -10.5295
ltibia -0.206668
lfoot -29.3991 4.50191
ltoes 28.0377
498
root 11.3289 17.9246 26.0117 -173.896 -57.9763 -178.771
lowerback -6.05815 2.68217 -1.04729
upperback -1.56354 3.6197 -2.12044
thorax 1.85291 1.77697 -1.32
lowerneck 6.27467 6.41553 4.57112
upperneck -5.22455 8.71413 -4.26091
head -2.35434 4.38836 -2.48783
rclavicle 6.90777e-015 -7.95139e-015
rhumerus -47.3645 -6.79943 -64.8586
rradius 51.3116
rwrist -5.67262
rhand -5.30858 -38.6647
rfingers 7.12502
rthumb 20.4969 -67.6027
lclavicle 6.90777e-015 -7.95139e-015
lhumerus 331.578 -12.0848 -304.806
lradius 19.4508
lwrist 6.24493
lhand -18.8458 -11.9502
lfingers 7.12502
lthumb 7.45401 17.8985
rfemur -0.691608 19.7605 4.42109
rtibia -4.18366
rfoot -39.3718 -36.9516
rtoes 26.9811
lfemur 8.87687 -8.69222 -10.5069
ltibia -0.214575
lfoot -29.425 4.55104
ltoes 27.3951
499
root 11.3211 17.9304 26.0035 -174.013 -58.2243 -178.752
lowerback -5.98955 2.70886 -1.13717
upperback -1.54458 3.66016 -2.08305
thorax 1.82681 1.79755 -1.23137
lowerneck 6.50728 6.33496 4.38192
upperneck -5.41591 8.60605 -4.09166
head -2.48149 4.33239 -2.41673
rclavicle 1.18401e-013 -2.06736e-014
rhumerus -47.2611 -6.9993 -64.5952
rradius 50.687
rwrist -6.00798
rhand -5.73961 -38.6117
rfingers 7.12502
rthumb 20.0827 -67.5938
lclavicle 1.18401e-013 -2.06736e-014
lhumerus 331.105 -12.2434 -304.99
lradius 19.6583
lwrist 7.37172
lhand -18.4198 -11.775
lfingers 7.12502
lthumb 7.86522 18.0586
rfemur -0.316344 20.3384 4.62175
rtibia -4.31887
rfoot -40.5089 -37.004
rtoes 27.8393
lfemur 8.96039 -8.74181 -10.4485
ltibia -0.230149
lfoot -29.3005 4.70766
ltoes 26.2419
500
root 11.3141 17.9361 25.9886 -174.154 -58.5518 -178.729
lowerback -5.91942 2.7519 -1.30424
upperback -1.53634 3.72604 -2.0842
thorax 1.78657 1.83005 -1.13802
lowerneck 6.49672 6.19496 4.52885
upperneck -5.26627 8.43421 -4.09325
head -2.43196 4.24523 -2.43184
rclavicle 1.35422e-014 1.35174e-014
rhumerus -47.422 -7.46804 -64.2799
rradius 50.2761
rwrist -6.18732
rhand -6.14743 -38.4582
rfingers 7.12502
rthumb 19.6906 -67.4809
lclavicle 1.35422e-014 1.35174e-014
lhumerus 330.777 -12.3576 -305.253
lradius 19.811
lwrist 8.45026
lhand -17.8731 -11.4518
lfingers 7.12502
lthumb 8.39277 18.3614
rfemur 0.238578 21.1377 4.93841
rtibia -4.59642
rfoot -41.9651 -37.2506
rtoes 28.6805
lfemur 9.06438 -8.5758 -10.2844
ltibia -0.286694
lfoot -28.9198 4.31809
ltoes 27.049
501
root 11.3036 17.9333 26.0041 -174.078 -58.7037 -178.71
lowerback -5.91824 2.85473 -1.12565
upperback -1.61026 3.84998 -2.1683
thorax 1.72893 1.89179 -1.31676
lowerneck 6.38764 6.06083 4.66622
upperneck -5.03026 8.26673 -4.08643
head -2.33625 4.16036 -2.43477
rclavicle 9.57397e-014 -1.59028e-015
rhumerus -47.4511 -7.76382 -64.0357
rradius 49.6662
rwrist -6.18351
rhand -6.54916 -38.5513
rfingers 7.12502
rthumb 19.3044 -67.6132
lclavicle 9.57397e-014 -1.59028e-015
lhumerus 330.305 -12.341 -305.561
lradius 20.1998
lwrist 9.46091
lhand -17.3617 -10.9632
lfingers 7.12502
lthumb 8.88634 18.8297
rfemur 0.0653046 20.2709 4.74808
rtibia -4.47689
rfoot -41.0663 -37.1541
rtoes 28.0747
lfemur 8.95927 -8.76233 -10.3868
ltibia -0.340804
lfoot -29.0068 4.12882
ltoes 28.1221
502
root 11.2879 17.9192 26.0661 -173.663 -58.6753 -178.709
lowerback -6.02021 2.96552 -0.408317
upperback -1.7996 3.95103 -2.3258
thorax 1.65228 1.94169 -1.87041
lowerneck 6.60335 6.12175 4.68757
upperneck -5.07882 8.35475 -4.14784
head -2.38464 4.20693 -2.47349
rclavicle -1.27719e-014 1.03368e-014
rhumerus -47.1219 -7.64544 -63.9094
rradius 48.7316
rwrist -6.20257
rhand -6.5014 -38.8377
rfingers 7.12502
rthumb 19.3503 -67.8949
lclavicle -1.27719e-014 1.03368e-014
lhumerus 329.912 -10.6398 -306.322
lradius 20.2969
lwrist 8.80136
lhand -16.9456 -11.0837
lfingers 7.12502
lthumb 9.28783 18.6917
rfemur -1.09809 17.5991 3.92077
rtibia -3.78138
rfoot -37.7356 -36.419
rtoes 26.1368
lfemur 8.40829 -9.61473 -10.8832
ltibia -0.224696
lfoot -29.8862 4.68024
ltoes 28.2015
503
root 11.2844 17.9244 26.0324 -173.977 -58.9985 -178.583
lowerback -5.99783 2.8738 -0.823975
upperback -1.70333 3.85575 -2.14723
thorax 1.6961 1.89512 -1.46118
lowerneck 6.59709 6.03218 4.41063
upperneck -5.0806 8.22347 -3.91056
head -2.41055 4.13869 -2.34421
rclavicle 5.12864e-014 1.59028e-015
rhumerus -46.8682 -7.6739 -63.7234
rradius 47.9543
rwrist -6.2227
rhand -6.48258 -38.8266
rfingers 7.12502
rthumb 19.3684 -67.882
lclavicle 5.12864e-014 1.59028e-015
lhumerus 329.491 -9.04875 -306.967
lradius 20.3433
lwrist 8.34991
lhand -16.5438 -11.129
lfingers 7.12502
lthumb 9.67555 18.6288
rfemur -0.316691 19.0302 4.47586
rtibia -4.10643
rfoot -40.0185 -36.6293
rtoes 27.6242
lfemur 8.65694 -9.20504 -10.5028
ltibia -0.325473
lfoot -29.2229 4.36396
ltoes 27.7093
504
root 11.2777 17.9256 26.0228 -174.112 -59.1797 -178.532
lowerback -5.93522 2.86286 -0.965252
upperback -1.67646 3.84924 -2.07701
thorax 1.67458 1.8924 -1.31351
lowerneck 6.42558 6.12272 4.32092
upperneck -4.77985 8.33581 -3.86982
head -2.27836 4.19656 -2.29876
rclavicle -2.1096e-014 -1.51076e-014
rhumerus -46.8376 -7.87072 -63.5143
rradius 47.45
rwrist -6.21565
rhand -6.74428 -38.8182
rfingers 7.12502
rthumb 19.1167 -67.8987
lclavicle -2.1096e-014 -1.51076e-014
lhumerus 329.046 -7.80143 -307.524
lradius 20.4536
lwrist 8.23865
lhand -16.4508 -10.6355
lfingers 7.12502
lthumb 9.76526 19.1181
rfemur -0.088139 18.7141 4.62486
rtibia -3.87082
rfoot -39.386 -37.1247
rtoes 25.1714
lfemur 8.801 -9.21379 -10.4191
ltibia -0.39722
lfoot -29.0789 4.3174
ltoes 27.5943
505
root 11.2711 17.926 26.0217 -173.996 -59.2878 -178.684
lowerback -5.89873 2.86143 -1.10524
upperback -1.68723 3.85371 -2.07063
thorax 1.63354 1.89419 -1.23111
lowerneck 6.238 6.07348 4.25905
upperneck -4.41049 8.27288 -3.67503
head -2.13448 4.16196 -2.20071
rclavicle 5.09386e-015 1.11319e-014
rhumerus -46.7667 -7.93288 -63.4084
rradius 46.9199
rwrist -6.22259
rhand -6.80005 -39.4212
rfingers 7.12502
rthumb 19.0631 -68.507
lclavicle 5.09386e-015 1.11319e-014
lhumerus 328.535 -6.61254 -308.09
lradius 20.5734
lwrist 8.24944
lhand -16.8732 -10.126
lfingers 7.12502
lthumb 9.35772 19.6463
rfemur -0.0222832 18.9141 4.52963
rtibia -4.03239
rfoot -40.5675 -36.4486
rtoes 27.7124
lfemur 8.85722 -9.34953 -10.5428
ltibia -0.447772
lfoot -29.1704 4.29655
ltoes 27.7377
506
root 11.2649 17.9254 26.0196 -173.804 -59.3816 -178.865
lowerback -5.93621 2.8838 -1.24161
upperback -1.70501 3.89068 -2.10306
thorax 1.62974 1.91152 -1.18451
lowerneck 6.9068 5.98605 4.59412
upperneck -5.08203 8.17609 -4.15635
head -2.45427 4.12203 -2.47076
rclavicle -2.127e-014 -3.02153e-014
rhumerus -46.7333 -8.06103 -63.3179
rradius 46.3845
rwrist -6.15796
rhand -7.05383 -39.8915
rfingers 7.12502
rthumb 18.819 -69.0012
lclavicle -2.127e-014 -3.02153e-014
lhumerus 328.036 -5.7032 -308.508
lradius 20.7628
lwrist 8.77755
lhand -17.1607 -9.68519
lfingers 7.12502
lthumb 9.08031 20.0994
rfemur 0.0209812 19.2866 4.45535
rtibia -4.09234
rfoot -41.1839 -36.4208
rtoes 28.5505
lfemur 8.86742 -9.45828 -10.6651
ltibia -0.55656
lfoot -29.1963 4.35215
ltoes 27.6132
507
root 11.2581 17.9232 26.0205 -173.587 -59.4808 -179.024
lowerback -5.99951 2.93268 -1.31734
upperback -1.73108 3.95992 -2.15605
thorax 1.63761 1.94486 -1.18919
lowerneck 7.48762 5.85755 4.96755
upperneck -5.50938 8.03404 -4.55342
head -2.6852 4.05822 -2.70903
rclavicle 6.32881e-014 -6.99722e-014
rhumerus -46.7483 -8.26799 -63.1991
rradius 45.8266
rwrist -6.04096
rhand -7.48484 -39.909
rfingers 7.12502
rthumb 18.4045 -69.0583
lclavicle 6.32881e-014 -6.99722e-014
lhumerus 327.565 -4.99214 -308.763
lradius 21.0424
lwrist 9.39984
lhand -17.5997 -9.08987
lfingers 7.12502
lthumb 8.65667 20.7126
rfemur 0.0129331 19.5086 4.35056
rtibia -4.13162
rfoot -41.5011 -36.5177
rtoes 28.834
lfemur 8.81061 -9.58849 -10.7817
ltibia -0.642557
lfoot -29.2258 4.43563
ltoes 27.7067
508
root 11.2531 17.9222 26.0232 -173.489 -59.5975 -179.091
lowerback -5.98718 2.97059 -1.33578
upperback -1.74777 4.01048 -2.19619
thorax 1.61582 1.96971 -1.21762
lowerneck 6.84005 5.83864 4.53163
upperneck -4.8383 7.97667 -4.10508
head -2.37463 4.02373 -2.42527
rclavicle 3.9906e-014 -3.18055e-015
rhumerus -46.702 -8.36093 -63.1589
rradius 45.2247
rwrist -5.93713
rhand -7.62476 -39.9887
rfingers 7.12502
rthumb 18.2699 -69.1507
lclavicle 3.9906e-014 -3.18055e-015
lhumerus 327.011 -4.4622 -308.921
lradius 21.4575
lwrist 10.089
lhand -18.6624 -8.91793
lfingers 7.12502
lthumb 7.63106 20.9244
rfemur 0.0239728 19.5444 4.29716
rtibia -4.1311
rfoot -41.835 -36.4295
rtoes 29.2386
lfemur 8.75812 -9.66154 -10.8301
ltibia -0.648218
lfoot -29.1908 4.40811
ltoes 27.9453
